<?xml version="1.0" encoding="UTF-8" standalone="no"?>
<!-- Created with Inkscape (http://www.inkscape.org/) -->
<svg
   xmlns:dc="http://purl.org/dc/elements/1.1/"
   xmlns:cc="http://creativecommons.org/ns#"
   xmlns:rdf="http://www.w3.org/1999/02/22-rdf-syntax-ns#"
   xmlns:svg="http://www.w3.org/2000/svg"
   xmlns="http://www.w3.org/2000/svg"
   xmlns:sodipodi="http://sodipodi.sourceforge.net/DTD/sodipodi-0.dtd"
   xmlns:inkscape="http://www.inkscape.org/namespaces/inkscape"
   width="440"
   height="387.57999"
   id="svg2"
   sodipodi:version="0.32"
   inkscape:version="0.46"
   version="1.0"
   sodipodi:docname="globe-international-brand.svg"
   inkscape:output_extension="org.inkscape.output.svg.inkscape">
  <defs
     id="defs4">
    <inkscape:perspective
       sodipodi:type="inkscape:persp3d"
       inkscape:vp_x="0 : 526.18109 : 1"
       inkscape:vp_y="0 : 1000 : 0"
       inkscape:vp_z="744.09448 : 526.18109 : 1"
       inkscape:persp3d-origin="372.04724 : 350.78739 : 1"
       id="perspective10" />
    <inkscape:perspective
       id="perspective2410"
       inkscape:persp3d-origin="372.04724 : 350.78739 : 1"
       inkscape:vp_z="744.09448 : 526.18109 : 1"
       inkscape:vp_y="0 : 1000 : 0"
       inkscape:vp_x="0 : 526.18109 : 1"
       sodipodi:type="inkscape:persp3d" />
  </defs>
  <sodipodi:namedview
     id="base"
     pagecolor="#ffffff"
     bordercolor="#666666"
     borderopacity="1.0"
     gridtolerance="10000"
     guidetolerance="10"
     objecttolerance="10"
     inkscape:pageopacity="0.0"
     inkscape:pageshadow="2"
     inkscape:zoom="1.97"
     inkscape:cx="220"
     inkscape:cy="193.78999"
     inkscape:document-units="px"
     inkscape:current-layer="layer1"
     showgrid="false"
     inkscape:window-width="1680"
     inkscape:window-height="970"
     inkscape:window-x="-6"
     inkscape:window-y="-6" />
  <metadata
     id="metadata7">
    <rdf:RDF>
      <cc:Work
         rdf:about="">
        <dc:format>image/svg+xml</dc:format>
        <dc:type
           rdf:resource="http://purl.org/dc/dcmitype/StillImage" />
      </cc:Work>
    </rdf:RDF>
  </metadata>
  <g
     inkscape:label="Layer 1"
     inkscape:groupmode="layer"
     id="layer1"
     transform="translate(-173.483,-366.53422)">
    <g
       transform="matrix(0.7335616,0,0,-0.7335616,174.71292,868.34306)"
       inkscape:label="globe-brand"
       id="g2412">
      <g
         transform="scale(0.12,0.12)"
         id="g2414">
        <path
           id="path2416"
           style="fill:#0b0c0a;fill-opacity:1;fill-rule:evenodd;stroke:none"
           d="M 2416.94,3810.97 C 2416.94,3917.8 2498.63,3995.11 2607.02,3995.11 L 4080.12,3995.11 C 4180.36,3995.11 4273.17,3918.1 4273.17,3822.85 L 4273.17,3487.25 C 4273.17,3391.07 4191.79,3300.14 4100.91,3300.14 L 2586.23,3300.14 C 2494.35,3300.14 2416.94,3388.95 2416.94,3484.28 L 2416.94,3810.97 z M 697.332,4915.8 C 697.332,5036.32 824.715,5156.36 949.777,5156.36 L 4020.72,5156.36 C 4148.52,5156.36 4273.17,5036.68 4273.17,4909.86 L 4273.17,4158.46 C 4243.05,4165.47 4169.86,4199.88 4135.32,4213.66 C 4088.91,4232.17 4044.42,4250.25 3999.52,4267.93 C 3908.46,4303.79 3820.17,4340.42 3728.44,4377.01 C 3545.64,4449.91 3366.45,4522.23 3184.1,4595.95 C 3001.78,4669.65 2821,4741.13 2639.69,4814.82 C 2548.56,4851.85 2457.53,4887.7 2366.45,4924.71 C 2280.35,4959.7 2187.81,5007.87 2069.45,5007.87 L 2060.54,5007.87 C 1938.43,5007.87 1848.32,4927.45 1799.19,4853.43 C 1744.45,4770.97 1710.41,4665.35 1664.5,4572.32 C 1643.53,4529.85 1617.08,4470.74 1600.6,4428.32 C 1581.58,4379.37 1556.73,4333.91 1536.64,4284.38 C 1504.74,4205.73 1427.94,4074.79 1427.94,3977.29 L 1427.94,3944.62 C 1427.94,3842.2 1494.02,3732.06 1552.66,3689.18 C 1620.58,3639.51 1719.86,3595.19 1799.19,3555.55 C 1881.45,3514.45 1972.36,3473.5 2052.65,3428.87 C 2101.25,3401.85 2277.04,3323.64 2304.08,3300.14 C 1995.21,3300.14 1686.33,3300.14 1377.45,3300.14 C 1300.23,3300.14 1223.02,3300.14 1145.8,3300.14 C 1086.45,3300.14 964.566,3294.1 916.359,3302.36 C 806.199,3321.24 697.332,3419.69 697.332,3543.68 L 697.332,4915.8 z M 302.328,2985.32 L 4668.17,2985.32 L 4668.17,5497.91 L 302.328,5497.91 L 302.328,2985.32" />
        <path
           id="path2418"
           style="fill:#0b0c0a;fill-opacity:1;fill-rule:evenodd;stroke:none"
           d="M 1986.26,1764.67 L 1514.07,1764.67 L 1514.07,2554.68 L 1775.43,2554.68 L 1775.43,1990.38 L 2033.63,1990.42 L 1986.26,1764.67 z M 2054.61,2159.67 C 2054.61,2388.68 2227.89,2569.53 2455.55,2569.53 C 2683.6,2569.53 2883.22,2400.7 2883.22,2177.49 L 2883.22,2144.82 C 2883.22,1939.3 2687.56,1749.82 2485.25,1749.82 L 2437.73,1749.82 C 2226.07,1749.82 2054.61,1940.96 2054.61,2159.67 z M 3495.04,2168.58 C 3523.95,2161.84 3571.5,2119.42 3586.53,2096.73 C 3610.96,2059.86 3622.75,2029.57 3622.75,1969.59 C 3622.75,1827.42 3490.18,1764.67 3346.54,1764.67 L 2963.41,1764.67 L 2963.41,2554.68 L 3340.6,2554.68 C 3499.75,2554.68 3601.96,2488.37 3601.96,2328.96 C 3601.96,2290.93 3582.16,2253.45 3566.36,2230.91 C 3541.8,2195.88 3505.2,2182.46 3495.04,2168.58 z M 3961.32,2263.62 L 4139.52,2263.62 L 4139.52,2070.57 L 3961.32,2070.57 L 3961.32,1975.53 L 4246.44,1975.53 C 4236.85,1955.56 4226,1894.78 4217.84,1867.51 C 4213.16,1851.84 4195.05,1764.67 4184.07,1764.67 L 3699.96,1764.67 L 3699.96,2554.68 L 4180.68,2554.57 L 4231.59,2343.81 L 3961.32,2343.81 L 3961.32,2263.62 z M 1247.78,2288.69 C 1240.09,2289.96 1207.81,2314.88 1187.03,2322.67 C 1164.74,2331.02 1134.24,2337.87 1104.22,2337.87 L 1101.25,2337.87 C 1019.7,2337.87 937.898,2267.86 937.898,2192.34 L 937.898,2135.91 C 937.898,2047.27 1016.18,1975.53 1107.19,1975.53 L 1122.11,1974.85 L 1160.64,1978.5 L 1160.64,2055.72 L 1033.37,2055.61 L 1077.49,2230.95 L 1398.24,2230.95 L 1398.24,1821.09 C 1398.24,1805.42 1304.71,1770.97 1283.71,1766.34 C 1235.33,1755.65 1191.79,1746.85 1133.92,1746.85 L 1101.25,1746.85 C 980.789,1746.85 867.453,1806.9 806.484,1867.88 C 743.637,1930.73 682.48,2038.18 682.48,2162.64 C 682.48,2383.35 868.934,2569.53 1089.37,2569.53 L 1113.13,2569.53 C 1215.02,2569.53 1316.19,2524.42 1377.43,2483.42 L 1247.78,2288.69 z M 302.328,1500.34 L 4668.17,1500.34 L 4668.17,2896.22 L 302.328,2896.22 L 302.328,1500.34" />
        <path
           id="path2420"
           style="fill:#ffffff;fill-opacity:1;fill-rule:evenodd;stroke:none"
           d="M 697.332,4915.8 L 697.332,3543.68 C 697.332,3419.69 806.199,3321.24 916.359,3302.36 C 964.566,3294.1 1086.45,3300.14 1145.8,3300.14 C 1223.02,3300.14 1300.23,3300.14 1377.45,3300.14 C 1686.33,3300.14 1995.21,3300.14 2304.08,3300.14 C 2277.04,3323.64 2101.25,3401.85 2052.65,3428.87 C 1972.36,3473.5 1881.45,3514.45 1799.19,3555.55 C 1719.86,3595.19 1620.58,3639.51 1552.66,3689.18 C 1494.02,3732.06 1427.94,3842.2 1427.94,3944.62 L 1427.94,3977.29 C 1427.94,4074.79 1504.74,4205.73 1536.64,4284.38 C 1556.73,4333.91 1581.58,4379.37 1600.6,4428.32 C 1617.08,4470.74 1643.53,4529.85 1664.5,4572.32 C 1710.41,4665.35 1744.45,4770.97 1799.19,4853.43 C 1848.32,4927.45 1938.43,5007.87 2060.54,5007.87 L 2069.45,5007.87 C 2187.81,5007.87 2280.35,4959.7 2366.45,4924.71 C 2457.53,4887.7 2548.56,4851.85 2639.69,4814.82 C 2821,4741.13 3001.78,4669.65 3184.1,4595.95 C 3366.45,4522.23 3545.64,4449.91 3728.44,4377.01 C 3820.17,4340.42 3908.46,4303.79 3999.52,4267.93 C 4044.42,4250.25 4088.91,4232.17 4135.32,4213.66 C 4169.86,4199.88 4243.05,4165.47 4273.17,4158.46 L 4273.17,4909.86 C 4273.17,5036.68 4148.52,5156.36 4020.72,5156.36 L 949.777,5156.36 C 824.715,5156.36 697.332,5036.32 697.332,4915.8" />
        <path
           id="path2422"
           style="fill:#ffffff;fill-opacity:1;fill-rule:evenodd;stroke:none"
           d="M 302.328,2896.22 L 4668.17,2896.22 L 4668.17,1500.34 L 302.328,1500.34 L 302.328,2896.22 z M 302.328,5497.91 L 4668.17,5497.91 L 4668.17,2985.32 L 302.328,2985.32 L 302.328,5497.91 z M 213.23,1411.24 L 4757.27,1411.24 L 4757.27,5587.01 L 213.23,5587.01 L 213.23,1411.24" />
        <path
           id="path2424"
           style="fill:#ffffff;fill-opacity:1;fill-rule:evenodd;stroke:none"
           d="M 2416.94,3810.97 L 2416.94,3484.28 C 2416.94,3388.95 2494.35,3300.14 2586.23,3300.14 L 4100.91,3300.14 C 4191.79,3300.14 4273.17,3391.07 4273.17,3487.25 L 4273.17,3822.85 C 4273.17,3918.1 4180.36,3995.11 4080.12,3995.11 L 2607.02,3995.11 C 2498.63,3995.11 2416.94,3917.8 2416.94,3810.97" />
        <path
           id="path2426"
           style="fill:#ffffff;fill-opacity:1;fill-rule:evenodd;stroke:none"
           d="M 3221.8,2097.3 L 3284.17,2097.3 C 3317.54,2097.3 3352.48,2067.23 3352.48,2034.93 L 3352.48,2014.14 C 3352.48,1971.91 3315.33,1942.86 3275.26,1942.86 L 3221.8,1942.86 L 3221.8,2097.3 z M 3227.74,2376.48 L 3284.17,2376.48 C 3322.66,2376.48 3346.54,2352.6 3346.54,2314.11 L 3346.54,2302.23 C 3346.54,2264.89 3319.68,2239.86 3284.17,2239.86 L 3227.74,2239.86 L 3227.74,2376.48 z M 3495.04,2168.58 C 3505.2,2182.46 3541.8,2195.88 3566.36,2230.91 C 3582.16,2253.45 3601.96,2290.93 3601.96,2328.96 C 3601.96,2488.37 3499.75,2554.68 3340.6,2554.68 L 2963.41,2554.68 L 2963.41,1764.67 L 3346.54,1764.67 C 3490.18,1764.67 3622.75,1827.42 3622.75,1969.59 C 3622.75,2029.57 3610.96,2059.86 3586.53,2096.73 C 3571.5,2119.42 3523.95,2161.84 3495.04,2168.58" />
        <path
           id="path2428"
           style="fill:#ffffff;fill-opacity:1;fill-rule:evenodd;stroke:none"
           d="M 2277.35,2159.67 C 2277.35,2259.61 2353.45,2340.84 2452.58,2340.84 L 2467.43,2340.84 C 2561.51,2340.84 2639.69,2257.79 2639.69,2162.64 L 2639.69,2147.79 C 2639.69,2062.27 2553.62,1978.5 2464.46,1978.5 L 2452.58,1978.5 C 2360.52,1978.5 2277.35,2062.41 2277.35,2153.73 L 2277.35,2159.67 z M 2054.61,2159.67 C 2054.61,1940.96 2226.07,1749.82 2437.73,1749.82 L 2485.25,1749.82 C 2687.56,1749.82 2883.22,1939.3 2883.22,2144.82 L 2883.22,2177.49 C 2883.22,2400.7 2683.6,2569.53 2455.55,2569.53 C 2227.89,2569.53 2054.61,2388.68 2054.61,2159.67" />
        <path
           id="path2430"
           style="fill:#ffffff;fill-opacity:1;fill-rule:evenodd;stroke:none"
           d="M 1377.43,2483.42 C 1316.19,2524.42 1215.02,2569.53 1113.13,2569.53 L 1089.37,2569.53 C 868.934,2569.53 682.48,2383.35 682.48,2162.64 C 682.48,2038.18 743.637,1930.73 806.484,1867.88 C 867.453,1806.9 980.789,1746.85 1101.25,1746.85 L 1133.92,1746.85 C 1191.79,1746.85 1235.33,1755.65 1283.71,1766.34 C 1304.71,1770.97 1398.24,1805.42 1398.24,1821.09 L 1398.24,2230.95 L 1077.49,2230.95 L 1033.37,2055.61 L 1160.64,2055.72 L 1160.64,1978.5 L 1122.11,1974.85 L 1107.19,1975.53 C 1016.18,1975.53 937.898,2047.27 937.898,2135.91 L 937.898,2192.34 C 937.898,2267.86 1019.7,2337.87 1101.25,2337.87 L 1104.22,2337.87 C 1134.24,2337.87 1164.74,2331.02 1187.03,2322.67 C 1207.81,2314.88 1240.09,2289.96 1247.78,2288.69 L 1377.43,2483.42" />
        <path
           id="path2432"
           style="fill:#ffffff;fill-opacity:1;fill-rule:evenodd;stroke:none"
           d="M 3961.32,2343.81 L 4231.59,2343.81 L 4180.68,2554.57 L 3699.96,2554.68 L 3699.96,1764.67 L 4184.07,1764.67 C 4195.05,1764.67 4213.16,1851.84 4217.84,1867.51 C 4226,1894.78 4236.85,1955.56 4246.44,1975.53 L 3961.32,1975.53 L 3961.32,2070.57 L 4139.52,2070.57 L 4139.52,2263.62 L 3961.32,2263.62 L 3961.32,2343.81" />
        <path
           id="path2434"
           style="fill:#ffffff;fill-opacity:1;fill-rule:evenodd;stroke:none"
           d="M 2033.63,1990.42 L 1775.43,1990.38 L 1775.43,2554.68 L 1514.07,2554.68 L 1514.07,1764.67 L 1986.26,1764.67 L 2033.63,1990.42" />
        <path
           id="path2436"
           style="fill:#0b0c0a;fill-opacity:1;fill-rule:evenodd;stroke:none"
           d="M 2277.35,2159.67 L 2277.35,2153.73 C 2277.35,2062.41 2360.52,1978.5 2452.58,1978.5 L 2464.46,1978.5 C 2553.62,1978.5 2639.69,2062.27 2639.69,2147.79 L 2639.69,2162.64 C 2639.69,2257.79 2561.51,2340.84 2467.43,2340.84 L 2452.58,2340.84 C 2353.45,2340.84 2277.35,2259.61 2277.35,2159.67" />
        <path
           id="path2438"
           style="fill:#0b0c0a;fill-opacity:1;fill-rule:evenodd;stroke:none"
           d="M 3221.8,1942.86 L 3275.26,1942.86 C 3315.33,1942.86 3352.48,1971.91 3352.48,2014.14 L 3352.48,2034.93 C 3352.48,2067.23 3317.54,2097.3 3284.17,2097.3 L 3221.8,2097.3 L 3221.8,1942.86" />
        <path
           id="path2440"
           style="fill:#0b0c0a;fill-opacity:1;fill-rule:evenodd;stroke:none"
           d="M 3227.74,2239.86 L 3284.17,2239.86 C 3319.68,2239.86 3346.54,2264.89 3346.54,2302.23 L 3346.54,2314.11 C 3346.54,2352.6 3322.66,2376.48 3284.17,2376.48 L 3227.74,2376.48 L 3227.74,2239.86" />
        <path
           id="path2442"
           style="fill:#ffffff;fill-opacity:1;fill-rule:nonzero;stroke:none"
           d="M 4363.94,1785.29 L 4363.94,1846.24 L 4341.92,1846.24 L 4341.92,1859.5 L 4401.07,1859.5 L 4401.07,1846.24 L 4379.21,1846.24 L 4379.21,1785.29 L 4363.94,1785.29 z M 4409.87,1785.29 L 4409.87,1859.5 L 4432.45,1859.5 L 4447.21,1803.02 L 4461.78,1859.5 L 4484.45,1859.5 L 4484.45,1785.29 L 4470.14,1785.29 L 4470.14,1845.14 L 4455.07,1785.29 L 4439.46,1785.29 L 4424.18,1845.14 L 4424.18,1785.29 L 4409.87,1785.29" />
      </g>
    </g>
  </g>
</svg>
